<svg width="8" height="8" viewBox="0 0 8 8" fill="none" xmlns="http://www.w3.org/2000/svg">
<path d="M0.292787 0.305288C0.480314 0.117817 0.734623 0.0125013 0.999787 0.0125013C1.26495 0.0125013 1.51926 0.117817 1.70679 0.305288L3.86079 2.45829L6.01379 0.305288C6.10603 0.209778 6.21638 0.133596 6.33838 0.0811869C6.46039 0.0287779 6.59161 0.00119157 6.72439 3.77571e-05C6.85716 -0.00111606 6.98884 0.0241854 7.11174 0.0744663C7.23464 0.124747 7.34629 0.199 7.44018 0.292893C7.53407 0.386786 7.60833 0.498438 7.65861 0.621335C7.70889 0.744231 7.73419 0.87591 7.73304 1.00869C7.73188 1.14147 7.7043 1.27269 7.65189 1.39469C7.59948 1.5167 7.5233 1.62704 7.42779 1.71929L5.27479 3.87329L7.42779 6.02629C7.60994 6.21489 7.71074 6.46749 7.70846 6.72969C7.70618 6.99189 7.60101 7.2427 7.41561 7.42811C7.2302 7.61351 6.97938 7.71868 6.71719 7.72096C6.45499 7.72324 6.20239 7.62245 6.01379 7.44029L3.86079 5.28729L1.70679 7.44029C1.51746 7.61808 1.26639 7.71523 1.00671 7.7112C0.747023 7.70717 0.499094 7.60226 0.315381 7.41868C0.131668 7.2351 0.0265862 6.98724 0.0223694 6.72756C0.0181526 6.46788 0.115131 6.21674 0.292787 6.02729L2.44579 3.87429L0.292787 1.72029C0.105316 1.53276 0 1.27845 0 1.01329C0 0.748124 0.105316 0.493816 0.292787 0.306288" fill="#4D4D4D"/>
</svg>
