<svg width="46" height="46" viewBox="0 0 46 46" fill="none" xmlns="http://www.w3.org/2000/svg">
<path d="M11.8848 35.9258C12.3911 34.3948 13.3674 33.0624 14.6746 32.1182C15.9819 31.1739 17.5536 30.666 19.1662 30.6665H26.8329C28.4444 30.666 30.0152 31.1733 31.322 32.1164C32.6287 33.0595 33.6051 34.3904 34.1124 35.9201M22.9995 24.9165C24.5245 24.9165 25.987 24.3107 27.0654 23.2324C28.1437 22.154 28.7495 20.6915 28.7495 19.1665C28.7495 17.6415 28.1437 16.179 27.0654 15.1006C25.987 14.0223 24.5245 13.4165 22.9995 13.4165C21.4745 13.4165 20.012 14.0223 18.9337 15.1006C17.8553 16.179 17.2495 17.6415 17.2495 19.1665C17.2495 20.6915 17.8553 22.154 18.9337 23.2324C20.012 24.3107 21.4745 24.9165 22.9995 24.9165Z" stroke="white" stroke-width="4" stroke-linecap="round" stroke-linejoin="round"/>
<path d="M38.0938 12.0174C39.4354 12.7802 40.2596 14.2081 40.25 15.751V29.712C40.25 31.2626 39.4009 32.6924 38.0305 33.4457L25.093 41.6299C24.4515 41.9818 23.7317 42.1664 23 42.1664C22.2683 42.1664 21.5485 41.9818 20.907 41.6299L7.9695 33.4457C7.29965 33.0785 6.74046 32.5385 6.35012 31.8818C5.95978 31.2252 5.75255 30.4759 5.75 29.712V15.7491C5.75 14.1985 6.59908 12.7706 7.9695 12.0174L20.907 4.38903C21.5674 4.02493 22.3092 3.83398 23.0633 3.83398C23.8173 3.83398 24.5591 4.02493 25.2195 4.38903L38.157 12.0174H38.0938Z" stroke="white" stroke-width="4" stroke-linecap="round" stroke-linejoin="round"/>
</svg>
