<svg width="34" height="34" viewBox="0 0 34 34" fill="none" xmlns="http://www.w3.org/2000/svg">
<path d="M24.75 4.94444V1.5M9.25 4.94444V1.5M1.93056 10.1111H32.0694M1.5 13.6313C1.5 9.98883 1.5 8.16672 2.25089 6.77517C2.92987 5.53397 3.98344 4.53887 5.26133 3.93178C6.73556 3.22222 8.66444 3.22222 12.5222 3.22222H21.4778C25.3356 3.22222 27.2644 3.22222 28.7387 3.93178C30.0355 4.55522 31.0878 5.55067 31.7491 6.77344C32.5 8.16844 32.5 9.99056 32.5 13.6331V22.0926C32.5 25.7351 32.5 27.5572 31.7491 28.9488C31.0701 30.19 30.0166 31.1851 28.7387 31.7922C27.2644 32.5 25.3356 32.5 21.4778 32.5H12.5222C8.66444 32.5 6.73556 32.5 5.26133 31.7904C3.98369 31.1838 2.93015 30.1893 2.25089 28.9488C1.5 27.5538 1.5 25.7317 1.5 22.0892V13.6313Z" stroke="#FCFCFC" stroke-width="3" stroke-linecap="round" stroke-linejoin="round"/>
</svg>
