<svg width="56" height="56" viewBox="0 0 56 56" fill="none" xmlns="http://www.w3.org/2000/svg">
<circle cx="28" cy="28" r="28" fill="#FCFCFC"/>
<path d="M38.8898 31.1108C40.1274 31.1108 41.3144 31.6024 42.1896 32.4776C43.0648 33.3528 43.5564 34.5398 43.5564 35.7775V36.8897C43.5564 42.4539 37.0075 46.6663 28.0009 46.6663C18.9942 46.6663 12.4453 42.6732 12.4453 36.8897V35.7775C12.4453 34.5398 12.937 33.3528 13.8121 32.4776C14.6873 31.6024 15.8743 31.1108 17.112 31.1108H38.8898ZM28.0009 9.33301C29.2265 9.33301 30.4402 9.57442 31.5726 10.0435C32.705 10.5125 33.7339 11.2 34.6005 12.0667C35.4672 12.9334 36.1547 13.9623 36.6237 15.0946C37.0928 16.227 37.3342 17.4407 37.3342 18.6663C37.3342 19.892 37.0928 21.1057 36.6237 22.2381C36.1547 23.3704 35.4672 24.3993 34.6005 25.266C33.7339 26.1327 32.705 26.8202 31.5726 27.2892C30.4402 27.7583 29.2265 27.9997 28.0009 27.9997C25.5255 27.9997 23.1515 27.0163 21.4012 25.266C19.6509 23.5157 18.6675 21.1417 18.6675 18.6663C18.6675 16.191 19.6509 13.817 21.4012 12.0667C23.1515 10.3163 25.5255 9.33301 28.0009 9.33301Z" fill="#CAE8DD"/>
</svg>
